<svg width="140" height="50" viewBox="0 0 140 50" fill="none" xmlns="http://www.w3.org/2000/svg">
<path d="M27.312 14.848C26.864 15.744 26.336 16.688 25.728 17.68C25.12 18.672 24.672 19.616 24.384 20.512C23.84 21.28 23.44 22.032 23.184 22.768C22.928 23.472 22.608 24.224 22.224 25.024C21.744 25.92 21.344 26.832 21.024 27.76C20.736 28.656 20.432 29.552 20.112 30.448C19.728 31.152 19.344 31.856 18.96 32.56C18.576 33.232 18.224 33.904 17.904 34.576C17.424 35.728 16.336 37.328 14.64 39.376C12.976 41.424 11.568 42.752 10.416 43.36C10.16 43.488 9.888 43.632 9.6 43.792C9.312 43.952 9.056 44.096 8.832 44.224C8.384 44.48 7.904 44.576 7.392 44.512C5.12 44.352 3.264 43.504 1.824 41.968C0.864 41.04 0.272 39.712 0.048 37.984C0.048 37.888 0.048 37.76 0.048 37.6C0.048 37.408 0.032 37.168 0 36.88C0.064 36.304 0.24 35.632 0.528 34.864C0.72 34.416 0.896 33.984 1.056 33.568C1.248 33.12 1.44 32.688 1.632 32.272C2.752 29.904 4.048 28 5.52 26.56C7.504 24.608 9.92 22.88 12.768 21.376C13.184 21.152 13.648 20.976 14.16 20.848C14.704 20.688 15.232 20.528 15.744 20.368C16.384 20.272 17.056 20.56 17.76 21.232C18.112 21.552 18.064 21.84 17.616 22.096C17.392 22.256 17.216 22.336 17.088 22.336C16.192 22.4 15.344 22.656 14.544 23.104C13.744 23.552 12.96 23.968 12.192 24.352C11.424 24.8 10.704 25.312 10.032 25.888C9.392 26.464 8.752 27.024 8.112 27.568C7.6 28.016 7.136 28.496 6.72 29.008C6.336 29.52 5.936 30.032 5.52 30.544C5.488 30.608 5.344 30.848 5.088 31.264C4.832 31.712 4.576 32.176 4.32 32.656C4.064 33.104 3.84 33.536 3.648 33.952C3.36 34.528 3.216 34.88 3.216 35.008C3.024 35.68 2.848 36.336 2.688 36.976C2.528 37.616 2.384 38.256 2.256 38.896C2.032 39.856 2.336 40.544 3.168 40.96C3.968 41.6 4.992 41.92 6.24 41.92C6.592 41.952 6.928 41.888 7.248 41.728C8.72 41.088 10 40.08 11.088 38.704C11.312 38.416 11.552 38.128 11.808 37.84C12.064 37.552 12.304 37.232 12.528 36.88C12.816 36.592 13.088 36.24 13.344 35.824C13.92 34.8 14.48 33.808 15.024 32.848C15.6 31.888 16.128 30.864 16.608 29.776C17.056 28.72 17.52 27.664 18 26.608C18.512 25.52 19.008 24.416 19.488 23.296C19.712 22.752 19.936 22.208 20.16 21.664C20.416 21.12 20.688 20.56 20.976 19.984C21.072 19.696 21.216 19.424 21.408 19.168C21.632 18.88 21.808 18.576 21.936 18.256C22.032 18.032 22.176 17.872 22.368 17.776C22.592 17.648 22.72 17.44 22.752 17.152C22.752 16.928 22.896 16.496 23.184 15.856C23.408 15.344 23.6 14.832 23.76 14.32C23.952 13.808 24.176 13.28 24.432 12.736C24.784 11.68 25.248 10.608 25.824 9.52C25.856 9.392 25.904 9.264 25.968 9.136C26.032 8.976 26.096 8.832 26.16 8.704C25.424 9.376 24.688 9.872 23.952 10.192C23.6 10.48 23.392 10.64 23.328 10.672C23.264 10.768 23.168 10.864 23.04 10.96C22.688 11.088 22.368 11.248 22.08 11.44C21.792 11.6 21.504 11.76 21.216 11.92C20.864 12.112 20.528 12.32 20.208 12.544C19.92 12.736 19.584 12.88 19.2 12.976C18.72 13.232 17.968 13.568 16.944 13.984C15.696 14.432 14.448 14.704 13.2 14.8C11.472 14.96 9.984 14.72 8.736 14.08C8.16 13.824 8.064 13.456 8.448 12.976C8.704 12.656 9.04 12.528 9.456 12.592C9.584 12.624 9.76 12.688 9.984 12.784C10.848 13.136 11.728 13.312 12.624 13.312C12.88 13.312 13.152 13.312 13.44 13.312C13.728 13.28 14 13.216 14.256 13.12C14.48 13.056 14.72 13.008 14.976 12.976C15.232 12.912 15.504 12.848 15.792 12.784C16.784 12.56 17.792 12.176 18.816 11.632C18.816 11.632 19.152 11.472 19.824 11.152C20.496 10.832 20.864 10.64 20.928 10.576C21.024 10.544 21.408 10.32 22.08 9.904C22.496 9.68 22.912 9.44 23.328 9.184C23.744 8.928 24.176 8.64 24.624 8.32C24.944 8.128 25.264 7.904 25.584 7.648C25.936 7.36 26.256 7.04 26.544 6.688C26.704 6.56 26.832 6.512 26.928 6.544C26.928 6.544 26.944 6.544 26.976 6.544C27.008 6.544 27.024 6.544 27.024 6.544L27.12 6.592C27.408 6.816 27.76 7.072 28.176 7.36C28.592 7.616 28.944 7.84 29.232 8.032C29.584 8.256 29.76 8.56 29.76 8.944C29.76 9.808 29.616 10.528 29.328 11.104C28.944 11.776 28.56 12.416 28.176 13.024C27.824 13.632 27.536 14.24 27.312 14.848ZM20.544 11.92C20.352 11.792 20.128 11.76 19.872 11.824C19.072 12.08 18.352 12.4 17.712 12.784C17.392 13.008 16.752 13.248 15.792 13.504C15.472 13.6 14.944 13.776 14.208 14.032C14.144 14.032 14.08 14.064 14.016 14.128C14.016 14.128 14.016 14.144 14.016 14.176C14.016 14.208 14.016 14.224 14.016 14.224C14.016 14.256 14.016 14.288 14.016 14.32C14.048 14.32 14.064 14.32 14.064 14.32C14.096 14.32 14.112 14.32 14.112 14.32C14.816 14.192 15.344 14.08 15.696 13.984C15.888 13.984 16.112 13.968 16.368 13.936C16.656 13.872 16.896 13.76 17.088 13.6C17.184 13.536 17.328 13.504 17.52 13.504C17.616 13.472 17.696 13.44 17.76 13.408C17.856 13.344 17.952 13.28 18.048 13.216C18.304 13.024 18.752 12.816 19.392 12.592C19.552 12.496 19.728 12.4 19.92 12.304C20.144 12.208 20.352 12.08 20.544 11.92ZM20.592 11.872L20.544 11.92C20.576 11.888 20.592 11.872 20.592 11.872ZM25.488 8.848C25.52 8.848 25.568 8.832 25.632 8.8C25.632 8.768 25.632 8.752 25.632 8.752C25.632 8.752 25.616 8.752 25.584 8.752C25.552 8.752 25.536 8.752 25.536 8.752L25.488 8.848ZM26.112 8.416C26.144 8.384 26.16 8.352 26.16 8.32C26.16 8.32 26.16 8.304 26.16 8.272C26.16 8.24 26.16 8.224 26.16 8.224L26.064 8.32L26.112 8.416ZM13.248 37.504C13.248 37.472 13.248 37.456 13.248 37.456V37.504ZM19.392 25.12C19.328 25.152 19.28 25.2 19.248 25.264C19.216 25.296 19.2 25.312 19.2 25.312C19.2 25.344 19.232 25.392 19.296 25.456C19.296 25.456 19.312 25.456 19.344 25.456C19.376 25.424 19.392 25.392 19.392 25.36C19.392 25.36 19.392 25.328 19.392 25.264C19.392 25.2 19.392 25.152 19.392 25.12ZM23.28 18.4C23.376 18.336 23.36 18.304 23.232 18.304C23.232 18.304 23.216 18.304 23.184 18.304C23.152 18.304 23.136 18.304 23.136 18.304C22.784 18.464 22.592 18.688 22.56 18.976C22.528 19.232 22.464 19.488 22.368 19.744C22.368 19.744 22.368 19.76 22.368 19.792C22.4 19.824 22.432 19.84 22.464 19.84C22.496 19.84 22.544 19.84 22.608 19.84C22.992 19.264 23.216 18.784 23.28 18.4ZM19.44 25.12C19.408 25.12 19.392 25.12 19.392 25.12H19.44ZM19.632 25.12C19.568 24.896 19.504 24.896 19.44 25.12H19.632ZM19.728 25.12H19.632H19.728ZM1.536 34.24C1.504 34.304 1.456 34.368 1.392 34.432C1.36 34.496 1.344 34.544 1.344 34.576C1.344 34.608 1.344 34.656 1.344 34.72C1.376 34.784 1.392 34.816 1.392 34.816C1.456 34.72 1.488 34.656 1.488 34.624C1.52 34.56 1.536 34.432 1.536 34.24ZM9.936 23.824C9.936 23.824 9.952 23.824 9.984 23.824C9.984 23.792 9.984 23.744 9.984 23.68L9.936 23.824ZM13.008 22.672L12.96 22.768L13.008 22.672ZM13.008 21.808C12.912 21.936 12.912 22.032 13.008 22.096C13.104 22.128 13.136 22.192 13.104 22.288C13.136 22.384 13.104 22.512 13.008 22.672C13.424 22.608 13.712 22.416 13.872 22.096C14.096 22 14.304 21.92 14.496 21.856C14.688 21.76 14.896 21.664 15.12 21.568C15.12 21.568 15.136 21.552 15.168 21.52C15.2 21.456 15.248 21.408 15.312 21.376C15.12 21.312 15.008 21.28 14.976 21.28C14.752 21.376 14.544 21.472 14.352 21.568C14.192 21.632 14.032 21.712 13.872 21.808C13.648 21.552 13.36 21.552 13.008 21.808ZM23.856 16.864C23.856 16.864 23.824 16.88 23.76 16.912C23.728 16.912 23.712 16.912 23.712 16.912C23.776 16.88 23.632 17.088 23.28 17.536C23.28 17.536 23.296 17.568 23.328 17.632C23.392 17.664 23.44 17.68 23.472 17.68C23.536 17.68 23.568 17.664 23.568 17.632C23.6 17.504 23.648 17.392 23.712 17.296C23.808 17.2 23.888 17.088 23.952 16.96C23.952 16.96 23.936 16.96 23.904 16.96C23.872 16.928 23.856 16.896 23.856 16.864ZM25.44 8.848C25.216 8.816 25.008 8.784 24.816 8.752C24.752 8.784 24.576 8.896 24.288 9.088C24.096 9.184 23.904 9.296 23.712 9.424C23.552 9.52 23.392 9.616 23.232 9.712C23.008 9.872 22.864 9.984 22.8 10.048C22.608 10.208 22.464 10.304 22.368 10.336C22.016 10.4 21.744 10.544 21.552 10.768C21.36 10.992 21.152 11.168 20.928 11.296C20.896 11.328 20.832 11.408 20.736 11.536L20.592 11.872C20.848 11.84 21.296 11.6 21.936 11.152C22 11.152 22.064 11.12 22.128 11.056C22.192 10.992 22.288 10.944 22.416 10.912C22.896 10.688 23.36 10.416 23.808 10.096C24.288 9.776 24.736 9.472 25.152 9.184C25.28 9.152 25.376 9.04 25.44 8.848ZM25.44 8.848C25.472 8.848 25.488 8.848 25.488 8.848H25.44ZM26.4 7.648C26.4 7.648 26.384 7.664 26.352 7.696C26.352 7.696 26.352 7.712 26.352 7.744C26.352 7.744 26.368 7.744 26.4 7.744C26.4 7.712 26.416 7.696 26.448 7.696C26.448 7.696 26.432 7.696 26.4 7.696C26.4 7.664 26.4 7.648 26.4 7.648ZM20.208 24.88L19.728 25.12C19.728 25.536 19.616 25.888 19.392 26.176C19.2 26.464 19.024 26.784 18.864 27.136C18.64 27.488 18.512 27.776 18.48 28C18.448 28.544 18.208 28.944 17.76 29.2C17.472 29.424 17.328 29.664 17.328 29.92C17.296 29.92 17.264 29.936 17.232 29.968C17.232 30 17.232 30.016 17.232 30.016C17.232 30.048 17.232 30.096 17.232 30.16C17.264 30.192 17.296 30.208 17.328 30.208C17.328 30.976 17.056 31.536 16.512 31.888C16.384 31.952 16.32 32.096 16.32 32.32C16.32 32.448 16.288 32.512 16.224 32.512C15.904 32.512 15.712 32.624 15.648 32.848C15.616 33.072 15.584 33.296 15.552 33.52H15.6C15.504 33.68 15.424 33.92 15.36 34.24C15.328 34.56 15.264 34.8 15.168 34.96L15.024 35.392C14.736 35.872 14.432 36.368 14.112 36.88C13.824 37.392 13.552 37.872 13.296 38.32C13.264 38.384 13.248 38.272 13.248 37.984C13.248 37.664 13.248 37.504 13.248 37.504C13.088 37.6 13.008 37.808 13.008 38.128C13.008 38.448 12.976 38.656 12.912 38.752C12.56 39.2 12.176 39.616 11.76 40C11.344 40.384 11.008 40.8 10.752 41.248C10.528 41.408 10.32 41.616 10.128 41.872C9.936 42.096 9.728 42.256 9.504 42.352C9.216 42.544 8.928 42.672 8.64 42.736C8.352 42.8 8.064 42.912 7.776 43.072C7.744 43.104 7.728 43.168 7.728 43.264C7.728 43.264 7.744 43.28 7.776 43.312C7.84 43.312 7.904 43.312 7.968 43.312C8.608 43.088 9.072 42.896 9.36 42.736C9.808 42.48 10.128 42.256 10.32 42.064C10.896 41.552 11.44 41.04 11.952 40.528C12.496 39.984 13.024 39.376 13.536 38.704C13.856 38.16 14.176 37.632 14.496 37.12C14.848 36.576 15.184 36.016 15.504 35.44C15.824 34.928 16.304 34.08 16.944 32.896C17.04 32.064 17.344 31.28 17.856 30.544C18.368 29.808 18.752 28.992 19.008 28.096C19.008 28.064 19.024 28.032 19.056 28C19.664 27.392 19.888 26.864 19.728 26.416C19.728 26.448 19.776 26.352 19.872 26.128C20.16 25.872 20.272 25.456 20.208 24.88ZM20.256 24.784C20.256 24.848 20.256 24.88 20.256 24.88H20.208C20.24 24.88 20.256 24.848 20.256 24.784ZM22.176 20.896C22.176 20.896 22.176 20.864 22.176 20.8C22.176 20.736 22.192 20.672 22.224 20.608C22.224 20.608 22.208 20.608 22.176 20.608C22.144 20.576 22.128 20.544 22.128 20.512C22.128 20.512 22.112 20.512 22.08 20.512C22.048 20.512 22.032 20.512 22.032 20.512C21.904 20.608 21.776 20.704 21.648 20.8C21.52 20.896 21.44 20.992 21.408 21.088C21.184 21.76 20.944 22.4 20.688 23.008C20.464 23.584 20.32 24.176 20.256 24.784C20.512 24.752 20.672 24.576 20.736 24.256C20.864 23.52 21.184 22.72 21.696 21.856C21.792 21.76 21.872 21.632 21.936 21.472C22 21.28 22.08 21.088 22.176 20.896ZM9.888 23.872L9.936 23.824C9.904 23.824 9.888 23.824 9.888 23.824C9.888 23.824 9.888 23.84 9.888 23.872ZM8.784 24.64C9.264 24.64 9.632 24.384 9.888 23.872C9.408 23.872 9.04 24.128 8.784 24.64ZM8.448 24.976C8.48 24.976 8.496 24.976 8.496 24.976L8.784 24.688C8.784 24.688 8.784 24.672 8.784 24.64L8.496 24.976C8.496 24.976 8.48 24.976 8.448 24.976ZM5.088 28.288C6.112 27.392 7.232 26.288 8.448 24.976C8.16 25.072 8.016 25.12 8.016 25.12C7.568 25.568 7.104 26 6.624 26.416C6.176 26.8 5.76 27.216 5.376 27.664C5.248 27.792 5.168 27.92 5.136 28.048C5.136 28.144 5.12 28.224 5.088 28.288ZM5.088 28.336C5.088 28.304 5.088 28.288 5.088 28.288C5.088 28.288 5.088 28.304 5.088 28.336ZM3.024 31.36C3.12 31.328 3.2 31.296 3.264 31.264C3.328 31.2 3.392 31.12 3.456 31.024C3.68 30.704 3.904 30.352 4.128 29.968C4.384 29.584 4.624 29.2 4.848 28.816C4.848 28.816 4.928 28.656 5.088 28.336C4.096 29.072 3.408 30.08 3.024 31.36ZM2.976 31.36C3.008 31.36 3.024 31.36 3.024 31.36C3.024 31.36 3.008 31.36 2.976 31.36ZM2.736 31.984C2.896 31.856 2.976 31.648 2.976 31.36C2.816 31.52 2.736 31.728 2.736 31.984ZM2.736 31.984C2.736 31.984 2.72 31.984 2.688 31.984L2.448 32.512L2.16 33.088L1.872 33.712L1.536 34.24L1.872 33.712L2.208 33.136L2.496 32.608L2.736 31.984ZM29.5905 26.032C29.2065 26.736 28.8065 27.408 28.3905 28.048C27.9745 28.656 27.5745 29.28 27.1905 29.92C26.9345 30.368 26.6625 30.784 26.3745 31.168C26.1185 31.552 25.8785 31.952 25.6545 32.368C25.3985 32.784 25.1425 33.184 24.8865 33.568C24.6625 33.952 24.3905 34.304 24.0705 34.624C23.9425 34.752 23.8465 34.88 23.7825 35.008C23.7505 35.136 23.6705 35.232 23.5425 35.296C23.4465 35.488 23.3185 35.52 23.1585 35.392C22.4225 35.2 22.0225 34.608 21.9585 33.616C21.8945 32.304 22.1345 30.96 22.6785 29.584C22.9025 29.008 23.1105 28.416 23.3025 27.808C23.4945 27.168 23.7665 26.576 24.1185 26.032C24.1185 25.68 24.2785 25.36 24.5985 25.072C24.9825 24.72 25.2865 24.304 25.5105 23.824C25.7665 23.344 26.1025 22.912 26.5185 22.528C26.9985 22.08 27.5905 21.648 28.2945 21.232C29.1585 20.784 30.0065 20.784 30.8385 21.232C30.7745 21.2 30.9665 21.328 31.4145 21.616C31.9265 21.936 32.3585 21.856 32.7105 21.376C32.7425 21.344 32.7585 21.296 32.7585 21.232C33.2705 20.56 33.7985 20.56 34.3425 21.232C34.3745 21.328 34.4225 21.44 34.4865 21.568C34.5505 21.696 34.6305 21.824 34.7265 21.952C34.7585 22.112 34.7585 22.288 34.7265 22.48C34.4705 22.896 34.2625 23.312 34.1025 23.728C33.9425 24.144 33.7345 24.56 33.4785 24.976C33.1905 25.424 32.9665 25.888 32.8065 26.368C32.6465 26.848 32.4705 27.296 32.2785 27.712C32.1825 27.872 32.1025 28.032 32.0385 28.192C32.0065 28.352 31.9585 28.496 31.8945 28.624C31.5745 29.168 31.3025 29.728 31.0785 30.304C30.8545 30.88 30.5665 31.44 30.2145 31.984C29.8305 32.688 29.6705 33.392 29.7345 34.096C29.7345 34.16 29.7665 34.192 29.8305 34.192C29.9585 34.192 30.0385 34.176 30.0705 34.144C30.4865 33.6 30.9185 33.072 31.3665 32.56C31.8145 32.016 32.2625 31.472 32.7105 30.928C32.9665 30.608 33.3345 30.08 33.8145 29.344C34.2945 28.608 34.6785 28.032 34.9665 27.616C34.9025 27.744 35.0785 27.6 35.4945 27.184C35.5265 27.536 35.4145 27.936 35.1585 28.384C34.7425 29.024 34.2145 29.824 33.5745 30.784C32.9665 31.744 32.4385 32.496 31.9905 33.04C31.4145 33.84 30.9345 34.4 30.5505 34.72C29.8145 35.52 29.0465 35.504 28.2465 34.672C27.9265 34.416 27.7665 34.064 27.7665 33.616C27.6705 32.688 27.8145 31.824 28.1985 31.024C28.2945 30.704 28.3905 30.368 28.4865 30.016C28.5825 29.664 28.7425 29.328 28.9665 29.008C29.1905 28.752 29.3505 28.448 29.4465 28.096C29.5425 27.712 29.6545 27.328 29.7825 26.944C29.9425 26.464 30.1025 25.856 30.2625 25.12C30.4225 24.352 30.5025 23.952 30.5025 23.92C30.5985 23.824 30.6785 23.696 30.7425 23.536C30.8065 23.376 30.9025 23.232 31.0305 23.104C31.0305 23.104 31.0145 23.104 30.9825 23.104C30.9505 23.072 30.9345 23.024 30.9345 22.96C30.9345 22.96 30.9185 22.96 30.8865 22.96C30.8545 22.928 30.8385 22.912 30.8385 22.912C30.7105 23.008 30.5665 23.072 30.4065 23.104C30.2785 23.136 30.1665 23.168 30.0705 23.2C29.3025 23.424 28.6785 23.712 28.1985 24.064C27.9745 24.288 27.8625 24.432 27.8625 24.496C27.8305 24.784 27.7185 25.008 27.5265 25.168C27.3345 25.328 27.1905 25.52 27.0945 25.744C26.7745 26.256 26.4545 26.768 26.1345 27.28C25.8145 27.792 25.5745 28.352 25.4145 28.96C25.0625 29.504 24.7745 30.096 24.5505 30.736C24.3585 31.376 24.1505 32 23.9265 32.608C23.9905 32.544 24.0225 32.624 24.0225 32.848C24.0225 32.848 24.0385 32.832 24.0705 32.8C24.1345 32.768 24.1825 32.736 24.2145 32.704C24.7265 31.968 25.1105 31.392 25.3665 30.976C25.4945 30.88 25.5905 30.768 25.6545 30.64C25.7185 30.48 25.8145 30.336 25.9425 30.208C26.2625 29.952 26.5505 29.648 26.8065 29.296C27.0625 28.912 27.3185 28.544 27.5745 28.192C27.7985 27.84 28.0225 27.52 28.2465 27.232C28.5025 26.912 28.7425 26.544 28.9665 26.128C29.3825 25.392 29.7665 24.88 30.1185 24.592C30.4705 24.304 30.2945 24.784 29.5905 26.032ZM31.6545 26.8C31.7825 26.768 31.8625 26.704 31.8945 26.608C31.8945 26.608 31.8945 26.544 31.8945 26.416C31.7985 26.512 31.7505 26.56 31.7505 26.56C31.6865 26.592 31.6545 26.64 31.6545 26.704C31.6545 26.768 31.6545 26.8 31.6545 26.8C31.5585 26.896 31.5105 26.944 31.5105 26.944C31.5105 26.944 31.5105 27.04 31.5105 27.232C31.5105 27.232 31.5265 27.216 31.5585 27.184C31.5905 27.152 31.6225 27.12 31.6545 27.088C31.6545 27.088 31.6545 27.056 31.6545 26.992C31.6545 26.928 31.6545 26.864 31.6545 26.8ZM24.4065 29.776C24.4065 29.712 24.4065 29.68 24.4065 29.68C24.4065 29.616 24.3585 29.552 24.2625 29.488C24.1985 29.552 24.1665 29.632 24.1665 29.728C24.1665 29.792 24.2145 29.888 24.3105 30.016C24.3105 30.016 24.3265 30 24.3585 29.968C24.3905 29.904 24.4065 29.84 24.4065 29.776ZM31.0785 28.432C31.0785 28.432 31.0625 28.432 31.0305 28.432C31.0305 28.4 31.0305 28.368 31.0305 28.336C30.9345 28.4 30.8865 28.48 30.8865 28.576C30.8865 28.576 30.8865 28.592 30.8865 28.624C30.9185 28.656 30.9665 28.672 31.0305 28.672C31.0305 28.64 31.0305 28.608 31.0305 28.576C31.0625 28.512 31.0785 28.464 31.0785 28.432ZM30.1665 30.256C30.1025 30.352 30.0705 30.4 30.0705 30.4C30.0705 30.432 30.0705 30.48 30.0705 30.544C30.1025 30.576 30.1185 30.592 30.1185 30.592C30.1185 30.592 30.1345 30.592 30.1665 30.592C30.1985 30.56 30.2145 30.544 30.2145 30.544C30.2145 30.512 30.1985 30.48 30.1665 30.448C30.1665 30.416 30.1665 30.352 30.1665 30.256ZM30.4545 29.776L30.4065 29.728V29.776H30.4545ZM48.6086 28C48.2886 28.448 47.5526 29.52 46.4006 31.216C45.2806 32.88 44.5766 33.904 44.2886 34.288C44.0966 34.576 43.7766 34.96 43.3286 35.44C42.8806 35.824 42.4326 35.824 41.9846 35.44C41.1206 34.832 40.6566 34.144 40.5926 33.376C40.4966 32.736 40.5926 31.936 40.8806 30.976C41.2006 29.92 41.4726 28.944 41.6966 28.048C41.9526 27.152 42.3526 26.176 42.8966 25.12C43.6966 23.648 44.0326 22.88 43.9046 22.816C43.5846 22.88 43.2486 23.136 42.8966 23.584C42.5126 24.096 42.1286 24.576 41.7446 25.024C41.3606 25.472 40.9766 25.936 40.5926 26.416C39.9206 27.28 39.2646 28.176 38.6246 29.104C37.9846 30 37.3926 30.928 36.8486 31.888C36.5286 32.496 36.1606 32.992 35.7446 33.376C35.6486 33.472 35.4566 33.744 35.1686 34.192C35.0726 34.288 34.9766 34.4 34.8806 34.528C34.8166 34.656 34.7526 34.784 34.6886 34.912C34.3686 35.392 33.9366 35.456 33.3926 35.104C32.5286 34.688 32.3206 33.952 32.7686 32.896C33.0566 32.352 33.3446 31.792 33.6326 31.216C33.8886 30.608 34.1126 30 34.3046 29.392C34.3686 29.2 34.4486 29.024 34.5446 28.864C34.6086 28.704 34.6566 28.528 34.6886 28.336C35.3286 27.12 35.9206 25.888 36.4646 24.64C37.0086 23.36 37.5526 22.064 38.0966 20.752C38.2566 20.208 38.5766 20.048 39.0566 20.272C39.4726 20.496 39.8886 20.752 40.3046 21.04C40.7846 21.392 40.9126 21.856 40.6886 22.432C40.3366 23.136 39.9686 23.856 39.5846 24.592C39.2326 25.296 38.8966 25.968 38.5766 26.608C38.3206 27.184 38.0486 27.728 37.7606 28.24C37.5046 28.752 37.2806 29.264 37.0886 29.776C37.0886 29.776 37.0886 29.872 37.0886 30.064C37.0886 30.064 37.1046 30.064 37.1366 30.064C37.1686 30.032 37.2006 29.984 37.2326 29.92C37.2646 29.856 37.3126 29.808 37.3766 29.776C37.4726 29.712 37.5526 29.616 37.6166 29.488C38.1606 28.624 38.7686 27.776 39.4406 26.944C40.1446 26.08 40.8646 25.216 41.6006 24.352C41.8566 24.032 42.0486 23.76 42.1766 23.536C42.3046 23.28 42.5286 22.96 42.8486 22.576C43.1046 22.256 43.3766 21.92 43.6646 21.568C43.9846 21.184 44.2886 20.832 44.5766 20.512C44.8006 20.288 44.9606 20.224 45.0566 20.32C45.2806 20.48 45.4886 20.576 45.6806 20.608C45.9046 20.64 46.1286 20.688 46.3526 20.752C46.4486 20.848 46.6246 21.024 46.8806 21.28C47.1686 21.536 47.3126 21.712 47.3126 21.808C47.3126 22.512 47.1046 23.248 46.6886 24.016C46.2726 24.752 45.9046 25.456 45.5846 26.128C45.3926 26.448 45.1526 26.944 44.8646 27.616C44.8326 27.616 44.8166 27.616 44.8166 27.616C44.8166 27.584 44.8166 27.568 44.8166 27.568C44.7526 27.568 44.7046 27.568 44.6726 27.568C44.6086 27.632 44.5766 27.712 44.5766 27.808C44.5766 27.84 44.5766 27.872 44.5766 27.904C44.6086 27.936 44.6406 27.952 44.6726 27.952C44.5446 28.272 44.4326 28.576 44.3366 28.864C44.2406 29.152 44.1286 29.44 44.0006 29.728C43.9046 29.6 43.8406 29.536 43.8086 29.536C43.6806 29.536 43.6166 29.632 43.6166 29.824C43.6166 29.856 43.6966 29.952 43.8566 30.112L43.9046 29.92C43.8406 30.24 43.7766 30.496 43.7126 30.688C43.7126 30.688 43.6806 30.688 43.6166 30.688C43.5846 30.656 43.5686 30.64 43.5686 30.64C43.5686 30.64 43.5686 30.624 43.5686 30.592C43.5686 30.56 43.5686 30.512 43.5686 30.448C43.5686 30.448 43.5526 30.448 43.5206 30.448C43.5206 30.416 43.5206 30.4 43.5206 30.4C43.5206 30.464 43.5206 30.496 43.5206 30.496C43.5206 30.56 43.5526 30.592 43.6166 30.592V30.976L43.5686 31.024C43.5686 31.024 43.5686 31.04 43.5686 31.072C43.5686 31.104 43.5686 31.12 43.5686 31.12L43.6166 31.024C43.0726 31.376 42.8806 31.84 43.0406 32.416C43.0086 32.448 42.9606 32.48 42.8966 32.512C42.8326 32.512 42.8006 32.512 42.8006 32.512C42.6726 32.736 42.5446 32.96 42.4166 33.184C42.2886 33.408 42.1606 33.632 42.0326 33.856C42.0006 33.888 41.9846 33.936 41.9846 34C41.9846 34.064 41.9846 34.112 41.9846 34.144C42.0166 34.176 42.0326 34.192 42.0326 34.192C42.1606 34.288 42.2246 34.288 42.2246 34.192C42.6406 33.648 42.9126 33.04 43.0406 32.368C43.1366 32.272 43.2646 32.112 43.4246 31.888L43.3286 32.224C43.1366 33.056 43.0726 33.584 43.1366 33.808C43.4566 33.808 43.7126 33.696 43.9046 33.472C44.1286 33.248 44.3526 33.024 44.5766 32.8C44.7366 32.608 45.3446 31.776 46.4006 30.304C47.4566 28.8 48.0646 27.968 48.2246 27.808C48.3206 27.648 48.4326 27.584 48.5606 27.616C48.6886 27.648 48.7046 27.776 48.6086 28ZM45.2486 23.872C45.2486 23.968 45.2646 24.032 45.2966 24.064C45.2966 24.064 45.3126 24.064 45.3446 24.064C45.3766 24.032 45.4086 24 45.4406 23.968C45.4406 23.968 45.4566 23.952 45.4886 23.92C45.5206 23.856 45.5366 23.776 45.5366 23.68C45.5366 23.68 45.5206 23.664 45.4886 23.632C45.4566 23.6 45.4406 23.568 45.4406 23.536C45.4086 23.568 45.3766 23.6 45.3446 23.632C45.3126 23.632 45.2966 23.632 45.2966 23.632C45.2646 23.664 45.2486 23.744 45.2486 23.872ZM36.2726 27.904C36.2406 27.904 36.2086 27.888 36.1766 27.856C36.1766 27.824 36.1766 27.776 36.1766 27.712C36.1766 27.712 36.1606 27.728 36.1286 27.76C36.1286 27.792 36.1286 27.808 36.1286 27.808C36.0646 27.936 36.0326 28.016 36.0326 28.048C36.0326 28.048 36.0326 28.08 36.0326 28.144C36.0646 28.176 36.0966 28.192 36.1286 28.192C36.1606 28.192 36.1766 28.16 36.1766 28.096C36.2406 28.032 36.2726 27.968 36.2726 27.904ZM37.2326 25.072C37.2326 25.04 37.2326 24.992 37.2326 24.928C37.2326 24.832 37.2326 24.736 37.2326 24.64C37.7446 24.384 37.9526 23.936 37.8566 23.296C37.8566 23.296 37.8726 23.28 37.9046 23.248C37.9686 23.216 38.0166 23.184 38.0486 23.152C38.1766 22.928 38.3046 22.704 38.4326 22.48C38.5606 22.256 38.6886 22.032 38.8166 21.808C38.8806 21.776 38.9126 21.728 38.9126 21.664C38.9126 21.664 38.8966 21.648 38.8646 21.616C38.8326 21.584 38.8166 21.536 38.8166 21.472C38.7846 21.472 38.7526 21.472 38.7206 21.472C38.6886 21.472 38.6726 21.472 38.6726 21.472C38.2246 22.048 37.9526 22.656 37.8566 23.296C37.4726 23.68 37.2806 24.144 37.2806 24.688C37.0886 24.848 37.0886 24.976 37.2806 25.072C37.2806 25.104 37.2806 25.152 37.2806 25.216C37.2806 25.248 37.2806 25.264 37.2806 25.264C37.2806 25.264 37.2806 25.28 37.2806 25.312C37.3126 25.312 37.3286 25.312 37.3286 25.312C37.3606 25.28 37.3766 25.232 37.3766 25.168C37.3446 25.168 37.3126 25.168 37.2806 25.168C37.2486 25.136 37.2326 25.104 37.2326 25.072ZM37.0886 25.648C36.9926 25.712 36.9126 25.776 36.8486 25.84C36.8166 25.872 36.8006 25.888 36.8006 25.888C36.8646 26.048 36.9606 26.128 37.0886 26.128C37.2166 26.128 37.2646 26.032 37.2326 25.84C37.2326 25.936 37.1846 25.872 37.0886 25.648ZM35.6486 31.792C35.6486 31.728 35.6326 31.68 35.6006 31.648C35.5046 31.648 35.4406 31.664 35.4086 31.696C35.4086 31.76 35.3926 31.824 35.3606 31.888C35.3606 31.92 35.3606 31.952 35.3606 31.984C35.3606 32.016 35.3606 32.048 35.3606 32.08C35.3926 32.112 35.4086 32.128 35.4086 32.128C35.4406 32.128 35.5046 32.096 35.6006 32.032C35.6326 32 35.6486 31.92 35.6486 31.792Z" fill="#EFDFA4"/>
<path d="M53.616 45L48.24 28.2H54.072L58.416 42.384H55.488L60.096 28.2H65.304L69.6 42.384H66.792L71.328 28.2H76.704L71.328 45H65.256L61.752 33.384H63.384L59.688 45H53.616ZM83.7688 45.24C82.2808 45.24 80.9608 44.952 79.8088 44.376C78.6728 43.784 77.7768 42.976 77.1208 41.952C76.4648 40.928 76.1368 39.752 76.1368 38.424C76.1368 37.096 76.4648 35.92 77.1208 34.896C77.7768 33.872 78.6728 33.072 79.8088 32.496C80.9608 31.92 82.2808 31.632 83.7688 31.632C85.2568 31.632 86.5768 31.92 87.7288 32.496C88.8808 33.072 89.7768 33.872 90.4168 34.896C91.0728 35.92 91.4008 37.096 91.4008 38.424C91.4008 39.752 91.0728 40.928 90.4168 41.952C89.7768 42.976 88.8808 43.784 87.7288 44.376C86.5768 44.952 85.2568 45.24 83.7688 45.24ZM83.7688 41.016C84.1688 41.016 84.5288 40.92 84.8488 40.728C85.1688 40.536 85.4248 40.248 85.6168 39.864C85.8088 39.464 85.9048 38.984 85.9048 38.424C85.9048 37.848 85.8088 37.376 85.6168 37.008C85.4248 36.624 85.1688 36.336 84.8488 36.144C84.5288 35.952 84.1688 35.856 83.7688 35.856C83.3688 35.856 83.0088 35.952 82.6888 36.144C82.3688 36.336 82.1128 36.624 81.9208 37.008C81.7288 37.376 81.6328 37.848 81.6328 38.424C81.6328 38.984 81.7288 39.464 81.9208 39.864C82.1128 40.248 82.3688 40.536 82.6888 40.728C83.0088 40.92 83.3688 41.016 83.7688 41.016ZM92.9784 49.896C92.3384 49.896 91.7304 49.84 91.1544 49.728C90.5624 49.616 90.0584 49.456 89.6424 49.248L90.9384 45.48C91.3224 45.688 91.7304 45.792 92.1624 45.792C92.4824 45.792 92.7464 45.672 92.9544 45.432C93.1784 45.192 93.2904 44.808 93.2904 44.28V31.872H98.7144V44.328C98.7144 46.024 98.2104 47.376 97.2024 48.384C96.1944 49.392 94.7864 49.896 92.9784 49.896ZM96.0024 30.816C95.0104 30.816 94.2184 30.552 93.6264 30.024C93.0344 29.496 92.7384 28.84 92.7384 28.056C92.7384 27.272 93.0344 26.616 93.6264 26.088C94.2184 25.56 95.0104 25.296 96.0024 25.296C96.9944 25.296 97.7864 25.544 98.3784 26.04C98.9704 26.536 99.2664 27.176 99.2664 27.96C99.2664 28.792 98.9704 29.48 98.3784 30.024C97.7864 30.552 96.9944 30.816 96.0024 30.816ZM108.17 45.24C106.666 45.24 105.33 44.952 104.162 44.376C102.994 43.8 102.074 43 101.402 41.976C100.746 40.936 100.418 39.752 100.418 38.424C100.418 37.096 100.746 35.92 101.402 34.896C102.074 33.872 102.994 33.072 104.162 32.496C105.33 31.92 106.666 31.632 108.17 31.632C109.77 31.632 111.138 31.976 112.274 32.664C113.41 33.352 114.194 34.304 114.626 35.52L110.426 37.584C110.154 36.976 109.818 36.536 109.418 36.264C109.034 35.992 108.61 35.856 108.146 35.856C107.746 35.856 107.37 35.952 107.018 36.144C106.682 36.336 106.41 36.624 106.202 37.008C106.01 37.376 105.914 37.848 105.914 38.424C105.914 39 106.01 39.48 106.202 39.864C106.41 40.248 106.682 40.536 107.018 40.728C107.37 40.92 107.746 41.016 108.146 41.016C108.61 41.016 109.034 40.88 109.418 40.608C109.818 40.336 110.154 39.896 110.426 39.288L114.626 41.352C114.194 42.568 113.41 43.52 112.274 44.208C111.138 44.896 109.77 45.24 108.17 45.24ZM115.88 45V31.872H121.304V45H115.88ZM118.592 30.816C117.6 30.816 116.808 30.552 116.216 30.024C115.624 29.496 115.328 28.84 115.328 28.056C115.328 27.272 115.624 26.616 116.216 26.088C116.808 25.56 117.6 25.296 118.592 25.296C119.584 25.296 120.376 25.544 120.968 26.04C121.56 26.536 121.856 27.176 121.856 27.96C121.856 28.792 121.56 29.48 120.968 30.024C120.376 30.552 119.584 30.816 118.592 30.816ZM128.244 42.84L128.364 36.456L132.9 31.872H139.308L133.308 38.16L130.596 40.344L128.244 42.84ZM123.708 45V27.192H129.132V45H123.708ZM133.188 45L129.588 40.44L132.924 36.336L139.74 45H133.188Z" fill="white"/>
</svg>
